<svg width="84" height="84" viewBox="0 0 84 84" fill="none" xmlns="http://www.w3.org/2000/svg">
<g filter="url(#filter0_d_1_774)">
<rect x="6" y="2" width="72" height="72" rx="36" fill="#02567A"/>
<rect x="5" y="1" width="74" height="74" rx="37" stroke="#F4F8FC" stroke-width="2"/>
<path d="M49.8363 31.5137C49.4283 31.5137 49.0295 31.6347 48.6902 31.8613C48.351 32.088 48.0866 32.4102 47.9305 32.7871C47.7743 33.164 47.7335 33.5788 47.8131 33.9789C47.8927 34.3791 48.0891 34.7467 48.3776 35.0351C48.6661 35.3236 49.0337 35.5201 49.4338 35.5997C49.834 35.6793 50.2487 35.6384 50.6257 35.4823C51.0026 35.3262 51.3248 35.0618 51.5514 34.7225C51.7781 34.3833 51.8991 33.9845 51.8991 33.5765C51.8985 33.0296 51.6809 32.5053 51.2942 32.1185C50.9075 31.7318 50.3832 31.5143 49.8363 31.5137ZM49.8363 34.7607C49.6019 34.7607 49.3728 34.6912 49.178 34.561C48.9831 34.4308 48.8313 34.2457 48.7416 34.0292C48.652 33.8127 48.6285 33.5744 48.6743 33.3446C48.7201 33.1147 48.833 32.9036 48.9987 32.7379C49.1645 32.5723 49.3756 32.4595 49.6055 32.4138C49.8354 32.3682 50.0736 32.3917 50.2901 32.4815C50.5065 32.5713 50.6915 32.7232 50.8217 32.9181C50.9518 33.113 51.0212 33.3421 51.021 33.5765C51.0207 33.8906 50.8958 34.1917 50.6737 34.4137C50.4515 34.6357 50.1503 34.7605 49.8363 34.7607Z" fill="#6398C3"/>
<path d="M55.3264 20.4474C55.2602 20.4228 55.189 20.4145 55.1189 20.4234C55.0488 20.4322 54.9818 20.4578 54.9237 20.498C54.8656 20.5382 54.8181 20.5919 54.7852 20.6544C54.7523 20.7169 54.7349 20.7865 54.7346 20.8571V28.1455C51.7218 29.2138 47.3134 29.9508 42 29.9508C36.6866 29.9508 32.2782 29.2132 29.2654 28.1449V20.8589C29.2651 20.7882 29.2477 20.7187 29.2148 20.6562C29.1819 20.5936 29.1344 20.54 29.0763 20.4998C29.0182 20.4595 28.9512 20.4339 28.8811 20.4251C28.811 20.4163 28.7398 20.4245 28.6736 20.4491C25.6162 21.5836 24 23.0364 24 24.6479V36.0837C24 39.5508 31.9065 42.2663 42 42.2663C52.0935 42.2663 60 39.5508 60 36.0837V24.6479C60 23.0364 58.3838 21.5836 55.3264 20.4474ZM28.3873 21.501V27.8083C26.1395 26.8753 24.878 25.7449 24.878 24.6474C24.878 23.5621 26.1477 22.4318 28.3873 21.5028V21.501ZM34.3674 40.8181L39.8172 32.7342L42.713 37.0243C42.7554 37.0807 42.8104 37.1264 42.8735 37.1579C42.9366 37.1894 43.0062 37.2058 43.0768 37.2058C43.1473 37.2058 43.2169 37.1894 43.2801 37.1579C43.3432 37.1264 43.3981 37.0807 43.4406 37.0243L45.0796 34.5962L49.3136 40.8678C46.8919 41.2221 44.4474 41.396 42 41.3882C39.4449 41.3993 36.8929 41.21 34.3674 40.8222V40.8181ZM59.1219 36.0766C59.1219 37.8638 55.7701 39.7375 50.2677 40.7086L45.4425 33.5689C45.4001 33.5126 45.3451 33.4668 45.282 33.4353C45.2189 33.4039 45.1493 33.3875 45.0787 33.3875C45.0082 33.3875 44.9386 33.4039 44.8755 33.4353C44.8123 33.4668 44.7574 33.5126 44.7149 33.5689L43.0759 35.997L40.1807 31.7069C40.1382 31.6505 40.0832 31.6048 40.02 31.5733C39.9568 31.5418 39.8872 31.5254 39.8166 31.5254C39.746 31.5254 39.6764 31.5418 39.6132 31.5733C39.55 31.6048 39.495 31.6505 39.4525 31.7069L33.4185 40.6595C28.1017 39.6743 24.878 37.8368 24.878 36.0837V26.5914C25.9391 27.5966 27.2083 28.356 28.5957 28.8158C28.6444 28.8455 28.6985 28.8654 28.7549 28.8743C32.0201 30.0837 36.7095 30.8288 42 30.8288C47.2905 30.8288 51.9799 30.0831 55.2451 28.8743C55.3015 28.8654 55.3556 28.8455 55.4043 28.8158C56.7917 28.356 58.0609 27.5966 59.1219 26.5914V36.0766ZM55.6127 27.8083V21.5028C57.8523 22.4318 59.1219 23.5621 59.1219 24.6479C59.1219 25.7449 57.8634 26.8753 55.6127 27.8083Z" fill="#6398C3"/>
<path d="M36.9658 19.905V18.6833C36.9653 18.1811 36.7656 17.6995 36.4105 17.3444C36.0553 16.9892 35.5738 16.7895 35.0716 16.7891H33.8499C33.3476 16.7895 32.866 16.9892 32.5108 17.3444C32.1555 17.6995 31.9557 18.181 31.9551 18.6833C31.9551 18.7997 32.0013 18.9114 32.0837 18.9937C32.166 19.0761 32.2777 19.1223 32.3941 19.1223C32.5105 19.1223 32.6222 19.0761 32.7045 18.9937C32.7869 18.9114 32.8331 18.7997 32.8331 18.6833C32.8336 18.4138 32.9409 18.1555 33.1315 17.9651C33.3221 17.7746 33.5804 17.6674 33.8499 17.6671H35.0716C35.341 17.6674 35.5993 17.7746 35.7898 17.9651C35.9803 18.1556 36.0875 18.4139 36.0878 18.6833V19.905C36.0876 20.1745 35.9805 20.433 35.79 20.6238C35.5995 20.8145 35.3411 20.9219 35.0716 20.9223H33.7914C33.6749 20.9223 33.5633 20.9686 33.4809 21.0509C33.3986 21.1333 33.3523 21.2449 33.3523 21.3614C33.3523 21.4778 33.3986 21.5895 33.4809 21.6718C33.5633 21.7541 33.6749 21.8004 33.7914 21.8004H35.0716C35.341 21.8007 35.5993 21.9079 35.7898 22.0984C35.9803 22.2889 36.0875 22.5472 36.0878 22.8166V24.0388C36.0875 24.3082 35.9803 24.5665 35.7898 24.757C35.5993 24.9475 35.341 25.0547 35.0716 25.055H33.8499C33.5804 25.0547 33.3221 24.9476 33.1315 24.7571C32.9409 24.5666 32.8336 24.3083 32.8331 24.0388C32.8331 23.9224 32.7869 23.8107 32.7045 23.7284C32.6222 23.646 32.5105 23.5998 32.3941 23.5998C32.2777 23.5998 32.166 23.646 32.0837 23.7284C32.0013 23.8107 31.9551 23.9224 31.9551 24.0388C31.9557 24.5411 32.1555 25.0227 32.5108 25.3778C32.866 25.7329 33.3476 25.9326 33.8499 25.9331H35.0716C35.5738 25.9326 36.0553 25.7329 36.4105 25.3777C36.7656 25.0226 36.9653 24.5411 36.9658 24.0388V22.8166C36.9648 22.5375 36.9018 22.2622 36.7814 22.0105C36.6609 21.7589 36.486 21.5371 36.2692 21.3614C36.486 21.1854 36.6609 20.9634 36.7814 20.7115C36.9019 20.4597 36.9649 20.1842 36.9658 19.905Z" fill="#6398C3"/>
<path d="M41.5648 17.6671H42.7864C43.0558 17.6674 43.3141 17.7746 43.5046 17.9651C43.6951 18.1556 43.8023 18.4139 43.8026 18.6833C43.8026 18.7997 43.8489 18.9114 43.9312 18.9937C44.0135 19.0761 44.1252 19.1223 44.2416 19.1223C44.3581 19.1223 44.4697 19.0761 44.5521 18.9937C44.6344 18.9114 44.6807 18.7997 44.6807 18.6833C44.68 18.1811 44.4803 17.6997 44.1252 17.3446C43.7701 16.9895 43.2886 16.7897 42.7864 16.7891H41.5648C41.0625 16.7895 40.5809 16.9892 40.2256 17.3444C39.8704 17.6995 39.6705 18.181 39.6699 18.6833V24.0388C39.6705 24.5411 39.8704 25.0227 40.2256 25.3778C40.5809 25.7329 41.0625 25.9326 41.5648 25.9331H42.7864C43.2886 25.9324 43.7701 25.7327 44.1252 25.3776C44.4803 25.0225 44.68 24.541 44.6807 24.0388V22.8166C44.68 22.3144 44.4803 21.8329 44.1252 21.4778C43.7701 21.1227 43.2886 20.923 42.7864 20.9223H41.5648C41.2045 20.9216 40.8515 21.0244 40.548 21.2185V18.6833C40.5483 18.4138 40.6555 18.1554 40.8462 17.9649C41.0368 17.7744 41.2952 17.6673 41.5648 17.6671ZM41.5648 21.8004H42.7864C43.0558 21.8007 43.3141 21.9079 43.5046 22.0984C43.6951 22.2889 43.8023 22.5472 43.8026 22.8166V24.0388C43.8023 24.3082 43.6951 24.5665 43.5046 24.757C43.3141 24.9475 43.0558 25.0547 42.7864 25.055H41.5648C41.2952 25.0549 41.0368 24.9478 40.8462 24.7572C40.6555 24.5667 40.5483 24.3083 40.548 24.0388V22.8166C40.5483 22.5471 40.6555 22.2887 40.8462 22.0982C41.0368 21.9076 41.2952 21.8005 41.5648 21.8004Z" fill="#6398C3"/>
<path d="M49.2813 25.9325H50.503C51.0052 25.932 51.4867 25.7324 51.8419 25.3774C52.1971 25.0224 52.3971 24.541 52.3978 24.0388V18.6833C52.3972 18.181 52.1974 17.6995 51.8421 17.3444C51.4869 16.9892 51.0053 16.7895 50.503 16.7891H49.2813C48.7787 16.7891 48.2967 16.9886 47.9411 17.3437C47.5855 17.6989 47.3854 18.1807 47.3848 18.6833V24.0388C47.3855 24.5413 47.5857 25.023 47.9413 25.378C48.2969 25.7331 48.7789 25.9325 49.2813 25.9325ZM48.2628 18.6833C48.2631 18.4139 48.3703 18.1556 48.5608 17.9651C48.7513 17.7746 49.0096 17.6674 49.279 17.6671H50.5007C50.7702 17.6673 51.0286 17.7744 51.2193 17.9649C51.4099 18.1554 51.5171 18.4138 51.5174 18.6833V24.0388C51.5171 24.3083 51.4099 24.5667 51.2193 24.7572C51.0286 24.9478 50.7702 25.0549 50.5007 25.055H49.2813C49.1477 25.0552 49.0154 25.029 48.8919 24.978C48.7684 24.927 48.6562 24.8522 48.5616 24.7579C48.467 24.6635 48.392 24.5514 48.3407 24.4281C48.2894 24.3047 48.263 24.1724 48.2628 24.0388V18.6833Z" fill="#6398C3"/>
<path d="M55.1974 16.0518C55.1974 15.7862 55.1186 15.5266 54.9711 15.3058C54.8235 15.085 54.6138 14.9128 54.3684 14.8112C54.1231 14.7096 53.8531 14.683 53.5926 14.7348C53.3321 14.7866 53.0928 14.9145 52.905 15.1023C52.7172 15.2901 52.5893 15.5294 52.5375 15.7898C52.4857 16.0503 52.5123 16.3203 52.6139 16.5657C52.7156 16.8111 52.8877 17.0208 53.1085 17.1683C53.3293 17.3159 53.589 17.3946 53.8545 17.3946C54.2104 17.3937 54.5514 17.2519 54.803 17.0003C55.0547 16.7487 55.1965 16.4077 55.1974 16.0518ZM53.3904 16.0518C53.3904 15.9599 53.4176 15.87 53.4687 15.7935C53.5198 15.7171 53.5924 15.6575 53.6774 15.6224C53.7624 15.5872 53.8558 15.578 53.946 15.596C54.0362 15.614 54.119 15.6583 54.184 15.7234C54.249 15.7884 54.2932 15.8713 54.3111 15.9615C54.3289 16.0517 54.3196 16.1452 54.2844 16.2301C54.2491 16.315 54.1894 16.3875 54.1129 16.4385C54.0364 16.4896 53.9465 16.5167 53.8545 16.5166C53.7314 16.5164 53.6133 16.4674 53.5263 16.3803C53.4392 16.2931 53.3904 16.175 53.3904 16.0518Z" fill="#6398C3"/>
<path d="M25.6055 58.1094C25.0221 58.1094 24.5026 58.0091 24.0469 57.8086C23.5938 57.6055 23.2357 57.3268 22.9727 56.9727C22.7122 56.6159 22.5781 56.2044 22.5703 55.7383H24.2734C24.2839 55.9336 24.3477 56.1055 24.4648 56.2539C24.5846 56.3997 24.7435 56.513 24.9414 56.5938C25.1393 56.6745 25.362 56.7148 25.6094 56.7148C25.8672 56.7148 26.0951 56.6693 26.293 56.5781C26.4909 56.487 26.6458 56.3607 26.7578 56.1992C26.8698 56.0378 26.9258 55.8516 26.9258 55.6406C26.9258 55.4271 26.8659 55.2383 26.7461 55.0742C26.6289 54.9076 26.4596 54.7773 26.2383 54.6836C26.0195 54.5898 25.7591 54.543 25.457 54.543H24.7109V53.3008H25.457C25.7122 53.3008 25.9375 53.2565 26.1328 53.168C26.3307 53.0794 26.4844 52.957 26.5938 52.8008C26.7031 52.6419 26.7578 52.457 26.7578 52.2461C26.7578 52.0456 26.7096 51.8698 26.6133 51.7187C26.5195 51.5651 26.3867 51.4453 26.2148 51.3594C26.0456 51.2734 25.8477 51.2305 25.6211 51.2305C25.3919 51.2305 25.1823 51.2721 24.9922 51.3555C24.8021 51.4362 24.6497 51.5521 24.5352 51.7031C24.4206 51.8542 24.3594 52.0312 24.3516 52.2344H22.7305C22.7383 51.7734 22.8698 51.3672 23.125 51.0156C23.3802 50.6641 23.724 50.3893 24.1563 50.1914C24.5911 49.9909 25.082 49.8906 25.6289 49.8906C26.181 49.8906 26.6641 49.9909 27.0781 50.1914C27.4922 50.3919 27.8138 50.6628 28.043 51.0039C28.2747 51.3424 28.3893 51.7227 28.3867 52.1445C28.3893 52.5924 28.25 52.9661 27.9687 53.2656C27.6901 53.5651 27.3268 53.7552 26.8789 53.8359V53.8984C27.4674 53.974 27.9154 54.1784 28.2227 54.5117C28.5326 54.8424 28.6862 55.2565 28.6836 55.7539C28.6862 56.2096 28.5547 56.6146 28.2891 56.9688C28.026 57.3229 27.6628 57.6016 27.1992 57.8047C26.7357 58.0078 26.2044 58.1094 25.6055 58.1094ZM32.7822 58H29.9463V50H32.8057C33.6104 50 34.3031 50.1602 34.8838 50.4805C35.4645 50.7982 35.9111 51.2552 36.2236 51.8516C36.5387 52.4479 36.6963 53.1615 36.6963 53.9922C36.6963 54.8255 36.5387 55.5417 36.2236 56.1406C35.9111 56.7396 35.4619 57.1992 34.876 57.5195C34.2926 57.8398 33.5947 58 32.7822 58ZM31.6377 56.5508H32.7119C33.2119 56.5508 33.6325 56.4622 33.9736 56.2852C34.3174 56.1055 34.5752 55.8281 34.7471 55.4531C34.9215 55.0755 35.0088 54.5885 35.0088 53.9922C35.0088 53.401 34.9215 52.918 34.7471 52.543C34.5752 52.168 34.3187 51.8919 33.9775 51.7148C33.6364 51.5378 33.2158 51.4492 32.7158 51.4492H31.6377V56.5508ZM41.6563 53.3398V54.6602H38.0078V53.3398H41.6563ZM42.7617 53.3086V52H48.1992V53.3086H46.2656V58H44.6797V53.3086H42.7617ZM50.2354 60.25C50.0244 60.25 49.8265 60.2331 49.6416 60.1992C49.4593 60.168 49.3083 60.1276 49.1885 60.0781L49.5635 58.8359C49.7588 58.8958 49.9346 58.9284 50.0908 58.9336C50.2497 58.9388 50.3864 58.9023 50.501 58.8242C50.6182 58.7461 50.7132 58.6133 50.7861 58.4258L50.8838 58.1719L48.7314 52H50.4814L51.7236 56.4062H51.7861L53.04 52H54.8018L52.4697 58.6484C52.3577 58.9714 52.2054 59.2526 52.0127 59.4922C51.8226 59.7344 51.5817 59.9206 51.29 60.0508C50.9984 60.1836 50.6468 60.25 50.2354 60.25ZM55.6533 60.25V52H57.2939V53.0078H57.3682C57.4411 52.8464 57.5465 52.6823 57.6846 52.5156C57.8252 52.3464 58.0075 52.2057 58.2314 52.0938C58.458 51.9792 58.7393 51.9219 59.0752 51.9219C59.5127 51.9219 59.9163 52.0365 60.2861 52.2656C60.6559 52.4922 60.9515 52.8346 61.1729 53.293C61.3942 53.7487 61.5049 54.3203 61.5049 55.0078C61.5049 55.6771 61.3968 56.2422 61.1807 56.7031C60.9671 57.1615 60.6755 57.5091 60.3057 57.7461C59.9385 57.9805 59.527 58.0977 59.0713 58.0977C58.7484 58.0977 58.4736 58.0443 58.2471 57.9375C58.0231 57.8307 57.8395 57.6966 57.6963 57.5352C57.5531 57.3711 57.4437 57.2057 57.3682 57.0391H57.3174V60.25H55.6533ZM57.2822 55C57.2822 55.3568 57.3317 55.668 57.4307 55.9336C57.5296 56.1992 57.6729 56.4062 57.8604 56.5547C58.0479 56.7005 58.2757 56.7734 58.5439 56.7734C58.8148 56.7734 59.0439 56.6992 59.2314 56.5508C59.4189 56.3997 59.5609 56.1914 59.6572 55.9258C59.7562 55.6576 59.8057 55.349 59.8057 55C59.8057 54.6536 59.7575 54.349 59.6611 54.0859C59.5648 53.8229 59.4229 53.6172 59.2354 53.4687C59.0479 53.3203 58.8174 53.2461 58.5439 53.2461C58.2731 53.2461 58.0439 53.3177 57.8564 53.4609C57.6715 53.6042 57.5296 53.8073 57.4307 54.0703C57.3317 54.3333 57.2822 54.6432 57.2822 55Z" fill="white"/>
</g>
<defs>
<filter id="filter0_d_1_774" x="0" y="0" width="84" height="84" filterUnits="userSpaceOnUse" color-interpolation-filters="sRGB">
<feFlood flood-opacity="0" result="BackgroundImageFix"/>
<feColorMatrix in="SourceAlpha" type="matrix" values="0 0 0 0 0 0 0 0 0 0 0 0 0 0 0 0 0 0 127 0" result="hardAlpha"/>
<feOffset dy="4"/>
<feGaussianBlur stdDeviation="2"/>
<feComposite in2="hardAlpha" operator="out"/>
<feColorMatrix type="matrix" values="0 0 0 0 0.451091 0 0 0 0 0.536471 0 0 0 0 0.572115 0 0 0 0.52 0"/>
<feBlend mode="normal" in2="BackgroundImageFix" result="effect1_dropShadow_1_774"/>
<feBlend mode="normal" in="SourceGraphic" in2="effect1_dropShadow_1_774" result="shape"/>
</filter>
</defs>
</svg>
