<svg width="32" height="32" viewBox="0 0 32 32" fill="none" xmlns="http://www.w3.org/2000/svg">
<path fill-rule="evenodd" clip-rule="evenodd" d="M31.2054 22.4865C30.4799 21.0258 29.5242 19.6914 28.3747 18.5345C27.9897 18.1005 27.5871 17.6824 27.168 17.2812L27.1174 17.2318C26.9616 17.0809 26.8078 16.928 26.656 16.7732C28.2277 14.5876 29.5724 12.2475 30.6694 9.78916L30.7134 9.69049L30.744 9.58649C30.8894 9.10249 31.0547 8.18249 30.468 7.35049C29.86 6.49182 28.888 6.33716 28.236 6.33716H25.24C24.6126 6.30816 23.9922 6.47857 23.4676 6.82398C22.943 7.16938 22.5413 7.67202 22.32 8.25982C21.6753 9.79537 20.868 11.2575 19.912 12.6212V9.11049C19.912 8.65716 19.8694 7.89716 19.3827 7.25716C18.8014 6.48916 17.96 6.33716 17.376 6.33716H12.6214C12.0009 6.32288 11.3988 6.54777 10.9396 6.96526C10.4804 7.38274 10.1994 7.96084 10.1547 8.57982L10.1507 8.63982V8.69982C10.1507 9.34649 10.4067 9.82382 10.612 10.1238C10.704 10.2585 10.8014 10.3812 10.864 10.4585L10.8774 10.4758C10.944 10.5585 10.988 10.6132 11.032 10.6745C11.1494 10.8318 11.316 11.0772 11.364 11.7092V13.6732C10.4097 12.0748 9.62715 10.3801 9.02936 8.61716L9.0187 8.58782L9.00803 8.55982C8.84536 8.13449 8.58536 7.51582 8.06403 7.04382C7.45603 6.49049 6.73603 6.33716 6.08136 6.33716H3.04136C2.3787 6.33716 1.58003 6.49182 0.984031 7.11982C0.398698 7.73849 0.332031 8.47982 0.332031 8.87182V9.05049L0.369365 9.22382C1.20972 13.132 2.94444 16.7922 5.43736 19.9172C6.57645 21.7136 8.12298 23.2163 9.95148 24.3033C11.78 25.3902 13.839 26.0308 15.9614 26.1732L16.016 26.1772H16.072C17.04 26.1772 18.0494 26.0932 18.808 25.5878C19.8307 24.9052 19.912 23.8585 19.912 23.3358V21.8185C20.1747 22.0318 20.5 22.3172 20.8987 22.7012C21.3814 23.1838 21.7654 23.6025 22.0947 23.9678L22.2707 24.1625C22.5267 24.4478 22.7787 24.7292 23.008 24.9598C23.296 25.2492 23.652 25.5678 24.0974 25.8038C24.5814 26.0585 25.0894 26.1745 25.628 26.1745H28.6694C29.3107 26.1745 30.2294 26.0225 30.876 25.2732C31.58 24.4572 31.5267 23.4558 31.3054 22.7372L31.2654 22.6078L31.2054 22.4865ZM23.5787 22.6278C23.1655 22.1658 22.74 21.715 22.3027 21.2758L22.2987 21.2718C20.4894 19.5278 19.6454 19.2252 19.048 19.2252C18.7294 19.2252 18.3787 19.2598 18.1507 19.5452C18.0493 19.682 17.9821 19.8411 17.9547 20.0092C17.9229 20.2048 17.9086 20.4029 17.912 20.6012V23.3358C17.912 23.6758 17.856 23.8185 17.6987 23.9225C17.4894 24.0625 17.0427 24.1758 16.084 24.1758C14.263 24.0519 12.4973 23.4976 10.9323 22.5583C9.3672 21.6191 8.04739 20.3218 7.08136 18.7732L7.0707 18.7558L7.05736 18.7398C4.73494 15.8515 3.1171 12.462 2.33203 8.83982C2.33736 8.66649 2.3747 8.56116 2.43603 8.49716C2.4987 8.43049 2.65203 8.33716 3.04136 8.33716H6.08136C6.4187 8.33716 6.5947 8.41182 6.72136 8.52516C6.8627 8.65582 6.98803 8.87582 7.13736 9.26782C7.88403 11.4625 8.89203 13.5158 9.84803 15.0252C10.3254 15.7785 10.7947 16.4065 11.2187 16.8505C11.4307 17.0718 11.6374 17.2558 11.836 17.3865C12.0267 17.5118 12.244 17.6118 12.468 17.6118C12.5854 17.6118 12.7227 17.5985 12.8547 17.5412C12.9974 17.4785 13.1149 17.3695 13.188 17.2318C13.3254 16.9812 13.364 16.6118 13.364 16.1278V11.6305C13.2934 10.5398 12.964 9.92516 12.644 9.48916C12.5791 9.40203 12.5124 9.31623 12.444 9.23182L12.4267 9.21049C12.3701 9.14122 12.3159 9.07007 12.264 8.99716C12.1991 8.91521 12.1597 8.81599 12.1507 8.71182C12.1612 8.60587 12.2117 8.50792 12.292 8.43803C12.3723 8.36813 12.4763 8.33157 12.5827 8.33582H17.376C17.6507 8.33582 17.7427 8.40249 17.7894 8.46516C17.856 8.55182 17.912 8.73182 17.912 9.11049V15.1478C17.912 15.8652 18.2427 16.3505 18.7227 16.3505C19.2747 16.3505 19.6734 16.0158 20.3694 15.3198L20.3814 15.3065L20.392 15.2945C21.9535 13.391 23.2291 11.27 24.1787 8.99849L24.184 8.98249C24.255 8.78155 24.39 8.60946 24.5682 8.49265C24.7465 8.37583 24.9581 8.32073 25.1707 8.33582H28.2374C28.6534 8.33582 28.7894 8.44249 28.8347 8.50516C28.8814 8.57182 28.9147 8.71449 28.8347 8.99449C27.7396 11.443 26.3857 13.7674 24.796 15.9278L24.7854 15.9438C24.632 16.1798 24.4627 16.4412 24.4387 16.7398C24.412 17.0625 24.5507 17.3545 24.7947 17.6692C24.972 17.9305 25.3387 18.2892 25.7107 18.6532L25.7454 18.6878C26.1347 19.0692 26.5574 19.4825 26.896 19.8825L26.9054 19.8918L26.9147 19.9025C27.9244 20.9099 28.7642 22.0744 29.4014 23.3505C29.5027 23.6972 29.4414 23.8758 29.3614 23.9678C29.2694 24.0745 29.0627 24.1745 28.6707 24.1745H25.628C25.4206 24.1801 25.2153 24.1319 25.032 24.0345C24.8077 23.9031 24.6037 23.7396 24.4267 23.5492C24.236 23.3585 24.0294 23.1278 23.776 22.8465L23.5787 22.6278Z" fill="#026994"/>
</svg>
