<svg width="160" height="32" viewBox="0 0 160 32" fill="none" xmlns="http://www.w3.org/2000/svg">
<path d="M16.0004 23.0333L10.4671 26.3666C10.2227 26.5222 9.96711 26.5888 9.70044 26.5666C9.43377 26.5444 9.20044 26.4555 9.00044 26.2999C8.80044 26.1444 8.64488 25.9502 8.53377 25.7173C8.42266 25.4844 8.40044 25.223 8.4671 24.9333L9.93377 18.6333L5.03377 14.3999C4.81155 14.1999 4.67288 13.9719 4.61777 13.7159C4.56266 13.4599 4.57911 13.2102 4.66711 12.9666C4.75511 12.723 4.88844 12.523 5.06711 12.3666C5.24577 12.2102 5.49022 12.1102 5.80044 12.0666L12.2671 11.4999L14.7671 5.5666C14.8782 5.29994 15.0507 5.09993 15.2844 4.9666C15.5182 4.83327 15.7569 4.7666 16.0004 4.7666C16.244 4.7666 16.4827 4.83327 16.7164 4.9666C16.9502 5.09993 17.1227 5.29994 17.2338 5.5666L19.7338 11.4999L26.2004 12.0666C26.5115 12.111 26.756 12.211 26.9338 12.3666C27.1115 12.5222 27.2449 12.7222 27.3338 12.9666C27.4227 13.211 27.4395 13.4613 27.3844 13.7173C27.3293 13.9733 27.1902 14.2008 26.9671 14.3999L22.0671 18.6333L23.5338 24.9333C23.6004 25.2222 23.5782 25.4835 23.4671 25.7173C23.356 25.951 23.2004 26.1453 23.0004 26.2999C22.8004 26.4546 22.5671 26.5435 22.3004 26.5666C22.0338 26.5897 21.7782 26.523 21.5338 26.3666L16.0004 23.0333Z" fill="#FFC146"/>
<path d="M48.0004 23.0333L42.4671 26.3666C42.2227 26.5222 41.9671 26.5888 41.7004 26.5666C41.4338 26.5444 41.2004 26.4555 41.0004 26.2999C40.8004 26.1444 40.6449 25.9502 40.5338 25.7173C40.4227 25.4844 40.4004 25.223 40.4671 24.9333L41.9338 18.6333L37.0338 14.3999C36.8115 14.1999 36.6729 13.9719 36.6178 13.7159C36.5627 13.4599 36.5791 13.2102 36.6671 12.9666C36.7551 12.723 36.8884 12.523 37.0671 12.3666C37.2458 12.2102 37.4902 12.1102 37.8004 12.0666L44.2671 11.4999L46.7671 5.5666C46.8782 5.29994 47.0507 5.09993 47.2844 4.9666C47.5182 4.83327 47.7569 4.7666 48.0004 4.7666C48.244 4.7666 48.4827 4.83327 48.7164 4.9666C48.9502 5.09993 49.1227 5.29994 49.2338 5.5666L51.7338 11.4999L58.2004 12.0666C58.5115 12.111 58.756 12.211 58.9338 12.3666C59.1115 12.5222 59.2449 12.7222 59.3338 12.9666C59.4227 13.211 59.4395 13.4613 59.3844 13.7173C59.3293 13.9733 59.1902 14.2008 58.9671 14.3999L54.0671 18.6333L55.5338 24.9333C55.6004 25.2222 55.5782 25.4835 55.4671 25.7173C55.356 25.951 55.2004 26.1453 55.0004 26.2999C54.8004 26.4546 54.5671 26.5435 54.3004 26.5666C54.0338 26.5897 53.7782 26.523 53.5338 26.3666L48.0004 23.0333Z" fill="#FFC146"/>
<path d="M80.0004 23.0333L74.4671 26.3666C74.2227 26.5222 73.9671 26.5888 73.7004 26.5666C73.4338 26.5444 73.2004 26.4555 73.0004 26.2999C72.8004 26.1444 72.6449 25.9502 72.5338 25.7173C72.4227 25.4844 72.4004 25.223 72.4671 24.9333L73.9338 18.6333L69.0338 14.3999C68.8115 14.1999 68.6729 13.9719 68.6178 13.7159C68.5627 13.4599 68.5791 13.2102 68.6671 12.9666C68.7551 12.723 68.8884 12.523 69.0671 12.3666C69.2458 12.2102 69.4902 12.1102 69.8004 12.0666L76.2671 11.4999L78.7671 5.5666C78.8782 5.29994 79.0507 5.09993 79.2844 4.9666C79.5182 4.83327 79.7569 4.7666 80.0004 4.7666C80.244 4.7666 80.4827 4.83327 80.7164 4.9666C80.9502 5.09993 81.1227 5.29994 81.2338 5.5666L83.7338 11.4999L90.2004 12.0666C90.5115 12.111 90.756 12.211 90.9338 12.3666C91.1115 12.5222 91.2449 12.7222 91.3338 12.9666C91.4227 13.211 91.4395 13.4613 91.3844 13.7173C91.3293 13.9733 91.1902 14.2008 90.9671 14.3999L86.0671 18.6333L87.5338 24.9333C87.6004 25.2222 87.5782 25.4835 87.4671 25.7173C87.356 25.951 87.2004 26.1453 87.0004 26.2999C86.8004 26.4546 86.5671 26.5435 86.3004 26.5666C86.0338 26.5897 85.7782 26.523 85.5338 26.3666L80.0004 23.0333Z" fill="#FFC146"/>
<path d="M112 23.0333L106.467 26.3666C106.223 26.5222 105.967 26.5888 105.7 26.5666C105.434 26.5444 105.2 26.4555 105 26.2999C104.8 26.1444 104.645 25.9502 104.534 25.7173C104.423 25.4844 104.4 25.223 104.467 24.9333L105.934 18.6333L101.034 14.3999C100.812 14.1999 100.673 13.9719 100.618 13.7159C100.563 13.4599 100.579 13.2102 100.667 12.9666C100.755 12.723 100.888 12.523 101.067 12.3666C101.246 12.2102 101.49 12.1102 101.8 12.0666L108.267 11.4999L110.767 5.5666C110.878 5.29994 111.051 5.09993 111.284 4.9666C111.518 4.83327 111.757 4.7666 112 4.7666C112.244 4.7666 112.483 4.83327 112.716 4.9666C112.95 5.09993 113.123 5.29994 113.234 5.5666L115.734 11.4999L122.2 12.0666C122.512 12.111 122.756 12.211 122.934 12.3666C123.112 12.5222 123.245 12.7222 123.334 12.9666C123.423 13.211 123.44 13.4613 123.384 13.7173C123.329 13.9733 123.19 14.2008 122.967 14.3999L118.067 18.6333L119.534 24.9333C119.6 25.2222 119.578 25.4835 119.467 25.7173C119.356 25.951 119.2 26.1453 119 26.2999C118.8 26.4546 118.567 26.5435 118.3 26.5666C118.034 26.5897 117.778 26.523 117.534 26.3666L112 23.0333Z" fill="#FFC146"/>
<path d="M144 23.0333L138.467 26.3666C138.223 26.5222 137.967 26.5888 137.7 26.5666C137.434 26.5444 137.2 26.4555 137 26.2999C136.8 26.1444 136.645 25.9502 136.534 25.7173C136.423 25.4844 136.4 25.223 136.467 24.9333L137.934 18.6333L133.034 14.3999C132.812 14.1999 132.673 13.9719 132.618 13.7159C132.563 13.4599 132.579 13.2102 132.667 12.9666C132.755 12.723 132.888 12.523 133.067 12.3666C133.246 12.2102 133.49 12.1102 133.8 12.0666L140.267 11.4999L142.767 5.5666C142.878 5.29994 143.051 5.09993 143.284 4.9666C143.518 4.83327 143.757 4.7666 144 4.7666C144.244 4.7666 144.483 4.83327 144.716 4.9666C144.95 5.09993 145.123 5.29994 145.234 5.5666L147.734 11.4999L154.2 12.0666C154.512 12.111 154.756 12.211 154.934 12.3666C155.112 12.5222 155.245 12.7222 155.334 12.9666C155.423 13.211 155.44 13.4613 155.384 13.7173C155.329 13.9733 155.19 14.2008 154.967 14.3999L150.067 18.6333L151.534 24.9333C151.6 25.2222 151.578 25.4835 151.467 25.7173C151.356 25.951 151.2 26.1453 151 26.2999C150.8 26.4546 150.567 26.5435 150.3 26.5666C150.034 26.5897 149.778 26.523 149.534 26.3666L144 23.0333Z" fill="#FFC146"/>
</svg>
