<svg width="120" height="60" viewBox="0 0 120 60" fill="none" xmlns="http://www.w3.org/2000/svg">
<path d="M38.8731 35.6348L43.2575 27.8346L38.436 20.5017L33.5693 28.112L38.8744 35.6348H38.8732H38.8731ZM38.5287 15.3527L46.8625 27.8284L38.9719 41.0809L30.2572 27.9895L38.5275 15.3527H38.5287Z" fill="#026994"/>
<path d="M60.3257 15.1904L59.8506 41.4058L56.999 41.1458L57.5058 20.8937L52.456 24.3492L48.918 41.4058L47.0165 40.1406L50.1856 22.2862L60.3257 15.1904Z" fill="#026994"/>
<path d="M76.9396 41.1458L74.0245 40.3678L73.7386 24.4629L66.6395 34.2436L66.355 40.9522L63.7256 40.5627L63.6303 16.9075L66.134 17.6206L66.736 28.6052L76.5585 15.2227L76.9396 41.1458Z" fill="#026994"/>
<path d="M101.262 39.9781L98.8878 41.1443L94.8981 23.31L90.0436 32.5912L84.7765 23.5061L81.8442 41.1495L79.0475 40.0767L83.8324 15.1252L89.9092 26.3234L95.742 15.1014L101.262 39.9781Z" fill="#026994"/>
<path d="M117.787 40.1742L114.902 41.0484L114.3 19.7809L106.22 22.622L106.694 40.7237L103.652 41.1458L103.241 16.0333L105.808 15.6761L105.966 19.0779L117.025 15.1904L117.787 40.1742Z" fill="#026994"/>
<path d="M35.1799 47.1865C35.1799 46.2324 35.8796 45.5039 36.823 45.5039C37.4353 45.5039 37.9601 45.8262 38.1851 46.329L37.9288 46.4839C37.7477 46.0776 37.3227 45.8134 36.823 45.8134C36.067 45.8134 35.4985 46.4194 35.4985 47.1865C35.4985 47.9537 36.067 48.5596 36.823 48.5596C37.3292 48.5596 37.7415 48.2888 37.9475 47.8892L38.2101 48.0503C37.9601 48.5468 37.4353 48.8692 36.823 48.8692C35.8797 48.8692 35.1799 48.1408 35.1799 47.1865Z" fill="#026994"/>
<path d="M41.0212 45.8909H39.8842V48.7983H39.5719V45.8909H38.4347V45.5749H41.0212V45.8909Z" fill="#026994"/>
<path d="M44.2098 47.1865C44.2098 46.4194 43.635 45.8134 42.8915 45.8134C42.1482 45.8134 41.5671 46.4194 41.5671 47.1865C41.5671 47.9537 42.1482 48.5596 42.8915 48.5596C43.635 48.5596 44.2098 47.9537 44.2098 47.1865ZM41.2483 47.1865C41.2483 46.2324 41.9794 45.5039 42.8915 45.5039C43.7975 45.5039 44.5284 46.2323 44.5284 47.1865C44.5284 48.1407 43.7975 48.8692 42.8915 48.8692C41.9794 48.8692 41.2483 48.1408 41.2483 47.1865Z" fill="#026994"/>
<path d="M48.2947 48.7983H47.976V46.065L46.8078 47.9668H46.764L45.5894 46.052V48.7983H45.2771V45.5749H45.6458L46.7827 47.4252L47.9199 45.5749H48.2947V48.7983Z" fill="#026994"/>
<path d="M52.0062 47.1866C52.0062 46.4194 51.4314 45.8135 50.6879 45.8135C49.9446 45.8135 49.3636 46.4194 49.3636 47.1866C49.3636 47.9537 49.9446 48.5597 50.6879 48.5597C51.4314 48.5597 52.0062 47.9537 52.0062 47.1866ZM52.3248 45.5749V48.7982H52.0062V48.0698C51.7438 48.5532 51.2627 48.8691 50.663 48.8691C49.7759 48.8691 49.0447 48.1408 49.0447 47.1865C49.0447 46.2324 49.7758 45.5039 50.663 45.5039C51.2627 45.5039 51.7438 45.8198 52.0062 46.3032V45.5749H52.3248V45.5749Z" fill="#026994"/>
<path d="M55.4728 45.8909H54.3358V48.7983H54.0234V45.8909H52.8863V45.5749H55.4728V45.8909Z" fill="#026994"/>
<path d="M58.6591 47.1865C58.6591 46.4194 58.0843 45.8134 57.3408 45.8134C56.5975 45.8134 56.0164 46.4194 56.0164 47.1865C56.0164 47.9537 56.5975 48.5596 57.3408 48.5596C58.0843 48.5596 58.6591 47.9537 58.6591 47.1865ZM55.6977 47.1865C55.6977 46.2324 56.4287 45.5039 57.3408 45.5039C58.2468 45.5039 58.9777 46.2323 58.9777 47.1865C58.9777 48.1407 58.2469 48.8692 57.3408 48.8692C56.4287 48.8692 55.6977 48.1408 55.6977 47.1865Z" fill="#026994"/>
<path d="M62.1383 48.7983H61.826V45.8909H60.2516V47.4446C60.2516 48.5727 59.7892 48.8435 59.202 48.7983V48.4954C59.6831 48.5403 59.9391 48.2761 59.9391 47.4446V45.5749H62.1383V48.7983L62.1383 48.7983Z" fill="#026994"/>
<path d="M65.8503 47.1865C65.8503 46.4194 65.2755 45.8134 64.532 45.8134C63.7887 45.8134 63.2076 46.4194 63.2076 47.1865C63.2076 47.9537 63.7887 48.5596 64.532 48.5596C65.2755 48.5596 65.8503 47.9537 65.8503 47.1865ZM62.8888 47.1865C62.8888 46.2324 63.6199 45.5039 64.532 45.5039C65.438 45.5039 66.1689 46.2323 66.1689 47.1865C66.1689 48.1407 65.4381 48.8692 64.532 48.8692C63.6199 48.8692 62.8888 48.1408 62.8888 47.1865Z" fill="#026994"/>
<path d="M68.873 45.8909H67.2299V48.7983H66.9175V45.5749H68.873V45.8909Z" fill="#026994"/>
<path d="M72.0111 45.5749V48.7983H71.6925V46.1359L69.7057 48.7983H69.4308V45.5749H69.7432V48.2375L71.7362 45.5749H72.0111Z" fill="#026994"/>
<path d="M75.3653 45.575V48.7983H75.0467V47.5348C74.7718 47.6766 74.4343 47.7476 74.0969 47.7476C73.3035 47.7476 72.8474 47.3607 72.8474 46.6259V45.575H73.1598V46.6259C73.1598 47.1867 73.491 47.438 74.0844 47.438C74.4155 47.438 74.7529 47.3671 75.0467 47.2318V45.5749H75.3653V45.575Z" fill="#026994"/>
<path d="M76.4388 47.0382H78.9504C78.8816 46.2517 78.3443 45.8133 77.7321 45.8133C77.0198 45.8133 76.5012 46.3227 76.4388 47.0382ZM79.2753 47.1994C79.2753 47.2511 79.269 47.3025 79.269 47.3541H76.4388C76.5138 48.0826 77.0511 48.5597 77.7634 48.5597C78.2756 48.5597 78.6629 48.3146 78.8441 47.9729L79.1192 48.1406C78.863 48.579 78.3757 48.869 77.7571 48.869C76.7949 48.869 76.1138 48.1599 76.1138 47.1865C76.1138 46.2387 76.7762 45.5039 77.7321 45.5039C78.6816 45.5039 79.2753 46.3162 79.2753 47.1993V47.1994Z" fill="#026994"/>
<path d="M79.7937 47.1865C79.7937 46.2324 80.4934 45.5039 81.437 45.5039C82.0492 45.5039 82.574 45.8262 82.7989 46.329L82.5429 46.4839C82.3615 46.0776 81.9366 45.8134 81.437 45.8134C80.6809 45.8134 80.1125 46.4194 80.1125 47.1865C80.1125 47.9537 80.6809 48.5596 81.437 48.5596C81.943 48.5596 82.3553 48.2888 82.5614 47.8892L82.824 48.0503C82.574 48.5468 82.0492 48.8692 81.437 48.8692C80.4935 48.8692 79.7937 48.1408 79.7937 47.1865Z" fill="#026994"/>
<path d="M85.4785 48.7983L83.8229 47.2124V48.7983H83.5106V45.5749H83.8229V47.0384L85.4037 45.5749H85.8409L84.1604 47.1223L85.9035 48.7983H85.4785Z" fill="#026994"/>
<path d="M88.9669 47.1866C88.9669 46.4194 88.3921 45.8135 87.6486 45.8135C86.9053 45.8135 86.324 46.4194 86.324 47.1866C86.324 47.9537 86.9053 48.5597 87.6486 48.5597C88.3921 48.5597 88.9669 47.9537 88.9669 47.1866ZM89.2855 45.5749V48.7982H88.9669V48.0698C88.7045 48.5532 88.2234 48.8691 87.6237 48.8691C86.7363 48.8691 86.0054 48.1408 86.0054 47.1865C86.0054 46.2324 86.7363 45.5039 87.6237 45.5039C88.2234 45.5039 88.7045 45.8198 88.9669 46.3032V45.5749H89.2855V45.5749Z" fill="#026994"/>
<path d="M92.0957 47.2318V45.8908H91.1711C90.7774 45.8908 90.4589 46.1552 90.4589 46.5614C90.4589 46.9739 90.7774 47.2317 91.1711 47.2317H92.0957V47.2318ZM92.4081 48.7983H92.0957V47.5413H91.421L90.4402 48.7983H90.0341L91.0336 47.5349C90.5401 47.4767 90.1402 47.1028 90.1402 46.5615C90.1402 45.9682 90.6151 45.5749 91.1711 45.5749H92.4081V48.7983Z" fill="#026994"/>
<path d="M97.0056 48.7983L95.3498 47.2124V48.7983H95.0377V45.5749H95.3498V47.0384L96.9306 45.5749H97.368L95.6873 47.1223L97.4304 48.7983H97.0056Z" fill="#026994"/>
<path d="M100.591 48.7983H100.279V45.8909H98.7046V47.4446C98.7046 48.5727 98.2421 48.8435 97.6549 48.7983V48.4954C98.136 48.5403 98.3922 48.2761 98.3922 47.4446V45.5749H100.591V48.7983L100.591 48.7983Z" fill="#026994"/>
<path d="M104.135 45.5749V48.7983H103.816V46.1359L101.829 48.7983H101.554V45.5749H101.867V48.2375L103.86 45.5749H104.135Z" fill="#026994"/>
<path d="M107.678 45.5749V48.7983H107.36V47.3413H105.41V48.7983H105.098V45.5749H105.41V47.032H107.36V45.5749H107.678Z" fill="#026994"/>
<path d="M111.219 45.5749V48.7983H110.901V46.1359L108.914 48.7983H108.639V45.5749H108.952V48.2375L110.945 45.5749H111.219Z" fill="#026994"/>
<path d="M114.148 48.7983L112.493 47.2124V48.7983H112.18V45.5749H112.493V47.0384L114.074 45.5749H114.511L112.83 47.1223L114.573 48.7983H114.148Z" fill="#026994"/>
<path d="M117.637 47.1866C117.637 46.4194 117.062 45.8135 116.318 45.8135C115.575 45.8135 114.994 46.4194 114.994 47.1866C114.994 47.9537 115.575 48.5597 116.318 48.5597C117.062 48.5597 117.637 47.9537 117.637 47.1866ZM117.955 45.5749V48.7982H117.637V48.0698C117.374 48.5532 116.893 48.8691 116.294 48.8691C115.406 48.8691 114.675 48.1408 114.675 47.1865C114.675 46.2324 115.406 45.5039 116.294 45.5039C116.893 45.5039 117.374 45.8198 117.637 46.3032V45.5749H117.955V45.5749Z" fill="#026994"/>
<path d="M13.5167 48.4366C13.5159 48.4375 13.5151 48.4384 13.5143 48.4391C13.5144 48.4389 13.5151 48.4381 13.5167 48.4366ZM34.52 38.2494L34.2867 40.2022C34.0351 42.1131 33.5436 44.016 32.6681 45.7338C31.9089 47.2074 30.5369 49.0744 28.7137 49.0315C28.7069 49.0313 28.6932 49.0315 28.6969 49.0306C28.6971 49.0295 28.6973 49.0297 28.6981 49.0284C28.7007 49.0265 28.7033 49.0246 28.6941 49.0176C28.6762 49.0041 28.6168 48.9504 28.5576 48.8642C28.4971 48.7783 28.4354 48.6663 28.3782 48.5449C28.3211 48.4223 28.2676 48.2893 28.2178 48.1512C28.1184 47.874 28.0322 47.5778 27.9534 47.2756C27.4081 45.0642 27.126 42.7902 26.6386 40.5576C26.2767 38.889 25.8614 37.2114 25.1148 35.6508C24.9939 35.3992 24.8492 35.1457 24.6861 34.9188C22.8488 32.3785 18.9913 32.5941 17.4108 35.2934C17.2669 35.5324 17.1361 35.7987 17.0182 36.0478C15.7552 38.8345 15.3128 41.88 14.6708 44.8344C14.4717 45.7567 14.2774 46.6546 13.9755 47.5201C13.8891 47.7604 13.7905 48.0065 13.6733 48.2148C13.6456 48.2632 13.6212 48.303 13.5981 48.337C12.6348 48.2101 11.8555 47.3316 11.3199 46.5244C10.6924 45.5613 10.2473 44.4448 9.93845 43.3191C9.23991 40.865 9.35527 38.2776 9.03973 35.7454C8.88646 34.3872 8.69338 33.0364 8.36221 31.6944C8.11273 30.6746 7.76568 29.6738 7.35735 28.7086C7.26915 28.5006 7.14895 28.2168 7.05581 28.0108C6.4552 26.6729 5.87027 25.3652 5.34969 24.0043C4.54275 21.8793 4.29685 19.2153 4.77615 16.9926C4.865 16.5783 4.98858 16.16 5.14185 15.7649C6.30461 12.7788 9.60097 11.2843 12.6306 10.9952C13.5062 10.9114 14.4046 11.0146 15.2645 11.199C16.037 11.364 16.791 11.5914 17.5456 11.831C17.7703 11.9039 18.0549 11.993 18.2814 12.0593C18.4351 12.0984 18.6471 12.156 18.8017 12.1882C19.1844 12.2744 19.5992 12.3383 19.9891 12.3787C20.077 12.3868 20.2976 12.4021 20.3883 12.4105C20.4713 12.4135 20.7099 12.4231 20.7879 12.4256C20.8822 12.4275 21.0902 12.425 21.1873 12.4247C21.2666 12.4258 21.3731 12.4165 21.4533 12.4142C21.5272 12.4081 21.6482 12.4088 21.7187 12.3987C21.7966 12.3908 22.0471 12.3708 22.1154 12.3612C22.2027 12.3512 22.4198 12.3182 22.5099 12.3083C22.5842 12.2956 22.835 12.2499 22.9014 12.2387C22.995 12.2225 23.193 12.1717 23.2896 12.1537C23.4551 12.1139 23.6368 12.0645 23.8002 12.0166C24.2796 11.8751 24.7656 11.6767 25.2316 11.5003C26.0494 11.1926 26.8769 10.9047 27.7283 10.7101C28.4423 10.5438 29.1777 10.453 29.9114 10.4745C32.2475 10.5623 34.6237 11.2607 36.4505 12.7603C36.9494 13.1717 37.3962 13.6457 37.7818 14.1672C37.7992 14.1912 37.8344 14.1969 37.8588 14.1765C37.8789 14.1595 37.8816 14.1293 37.8684 14.1065C37.5394 13.5346 37.132 13.0032 36.6624 12.5292C35.1123 10.9685 33.0074 10.0533 30.8626 9.66229C30.3194 9.56522 29.751 9.49396 29.1988 9.4863C27.8729 9.47133 26.5599 9.76082 25.2933 10.1276C24.8266 10.2575 24.3487 10.4216 23.8834 10.5552C23.1579 10.7657 22.3979 10.8727 21.6466 10.8873C20.6704 10.9024 19.6993 10.7486 18.7757 10.4405C18.6555 10.3957 18.4636 10.3302 18.3474 10.2842C17.4113 9.92613 16.4349 9.5745 15.444 9.33072C14.3096 9.0443 13.1285 8.92606 11.9595 9.04732C8.72765 9.33445 5.41914 10.7984 3.61284 13.5994C2.06533 16.0149 1.81464 19.2582 2.21199 22.0388C2.35159 23.0143 2.5854 23.9829 2.92227 24.912C3.4002 26.2371 3.96462 27.5656 4.52168 28.8476C4.93168 29.8029 5.29879 30.6944 5.57009 31.6733C5.62931 31.8816 5.69226 32.1233 5.74094 32.3339C6.30708 34.7651 6.47219 37.368 6.63467 39.89C6.67666 40.588 6.75241 41.2851 6.86424 41.9788C7.24758 44.2839 7.98573 46.5763 9.40255 48.4797C10.4417 49.8736 12.0035 51.0339 13.8239 50.9992C15.3086 50.9583 16.0521 49.5749 16.4461 48.3728C16.7773 47.3756 16.9852 46.3436 17.1816 45.342C17.6709 42.8208 18.0149 40.2565 18.8287 37.8457C18.999 37.3614 19.1807 36.8958 19.4198 36.4486C19.8663 35.6065 20.814 35.1902 21.7419 35.3792C22.2838 35.4852 22.7722 35.8091 23.0866 36.2635C23.1299 36.3187 23.1643 36.3848 23.203 36.4442C23.2071 36.4508 23.2105 36.4554 23.2149 36.4636L23.2281 36.4875C23.6882 37.3265 24.0198 38.2169 24.319 39.1427C25.102 41.5809 25.5867 44.2348 26.2588 46.713C26.4964 47.5511 26.7389 48.3935 27.1583 49.1748C27.4614 49.7374 27.9631 50.3257 28.6778 50.3211C31.7551 50.1996 33.414 46.7795 34.0786 44.1749C34.4093 42.8827 34.5802 41.5565 34.6197 40.2284C34.6351 39.6897 34.6385 38.7949 34.6472 38.2587C34.6483 38.1794 34.5315 38.1683 34.5201 38.2493L34.52 38.2494Z" fill="#026994"/>
</svg>
