<svg width="64" height="64" viewBox="0 0 64 64" fill="none" xmlns="http://www.w3.org/2000/svg">
<rect width="64" height="64" rx="32" fill="#026994"/>
<path d="M36.5331 28.298L30.5454 33.9535L27.6718 30.9971C27.3532 30.6692 26.8286 30.6617 26.501 30.9803C26.173 31.2992 26.1655 31.8234 26.4841 32.1514L29.9307 35.6895C30.2509 36.0116 30.7683 36.0226 31.1018 35.7141L37.6877 29.5022C37.8477 29.3514 37.9411 29.1431 37.9473 28.9235C37.9534 28.7039 37.872 28.4907 37.7208 28.3311C37.4003 27.9979 36.8718 27.9833 36.5331 28.298Z" fill="white"/>
<path d="M32.0892 19.5947C25.246 19.5947 19.6816 25.1591 19.6816 32.0022C19.6816 38.8457 25.246 44.4101 32.0892 44.4101C38.9327 44.4101 44.497 38.8457 44.497 32.0022C44.497 25.1591 38.9327 19.5947 32.0892 19.5947ZM32.0892 42.7491C26.1595 42.7491 21.3426 37.9238 21.3426 32.0022C21.3426 26.0807 26.1595 21.2557 32.0892 21.2557C38.0246 21.2557 42.836 26.0671 42.836 32.0022C42.836 37.9374 38.0246 42.7491 32.0892 42.7491Z" fill="white"/>
<path d="M49.1645 27.4343L49.4386 22.5094C49.4578 22.1788 49.278 21.8683 48.9818 21.7204L44.5967 19.503L42.3794 15.1179C42.2285 14.8244 41.92 14.6456 41.5904 14.6612L36.6571 14.9272L32.5461 12.2112C32.269 12.0286 31.9099 12.0286 31.6325 12.2112L27.5216 14.9272L22.597 14.6531C22.2661 14.6336 21.9559 14.8133 21.808 15.1098L19.5903 19.4949L15.2055 21.7123C14.9116 21.8628 14.7332 22.1713 14.7488 22.5013L15.0226 27.4262L12.3069 31.5372C12.1243 31.8142 12.1243 32.1733 12.3069 32.4507L15.0145 36.5698L14.7403 41.4947C14.7212 41.8253 14.9006 42.1357 15.1971 42.2837L19.5822 44.501L21.7996 48.8861C21.9501 49.1801 22.2586 49.3585 22.5885 49.3429L27.5135 49.0688L31.6244 51.7845C31.8999 51.9729 32.2625 51.9729 32.538 51.7845L36.6489 49.0688L41.5739 49.3429C41.9044 49.3621 42.2146 49.1823 42.3628 48.8861L44.5802 44.501L48.9653 42.2837C49.2589 42.1328 49.4376 41.8246 49.4221 41.4947L49.1479 36.5698L51.8636 32.4588C52.0462 32.1818 52.0462 31.8223 51.8636 31.5453L49.1645 27.4343ZM47.6196 35.8888C47.5184 36.0374 47.4714 36.2162 47.4869 36.3956L47.7442 41.0545L43.6001 43.1473C43.4422 43.2264 43.314 43.3549 43.2349 43.5129L41.1417 47.6569L36.4828 47.3997C36.3044 47.3932 36.1283 47.4393 35.9761 47.5324L32.0893 50.0988L28.2028 47.5324C28.0679 47.4412 27.9089 47.3919 27.7461 47.3912H27.7045L23.0453 47.6488L20.9525 43.5044C20.8734 43.3465 20.7452 43.2183 20.5869 43.1392L16.4344 41.0545L16.692 36.3956C16.6985 36.2171 16.6521 36.041 16.559 35.8888L13.9929 32.002L16.559 28.1152C16.6605 27.967 16.7076 27.7879 16.692 27.6088L16.4344 22.9496L20.5788 20.8568C20.7368 20.7777 20.8649 20.6495 20.9441 20.4915L23.0369 16.3471L27.6961 16.6047C27.8742 16.6109 28.0504 16.5648 28.2028 16.4717L32.0893 13.9056L35.9761 16.4717C36.1247 16.5733 36.3038 16.6203 36.4828 16.6047L41.1417 16.3471L43.2349 20.4915C43.314 20.6495 43.4422 20.7777 43.6001 20.8568L47.7442 22.9496L47.4869 27.6088C47.4805 27.7869 47.5268 27.9631 47.6196 28.1152L50.1861 32.002L47.6196 35.8888Z" fill="white"/>
</svg>
